<svg xmlns="http://www.w3.org/2000/svg" viewBox="0 0 360 88" role="img" aria-labelledby="title">
  <title id="title">KokoaDB Data Pod logo</title>
  <g transform="translate(8 12)">
    <rect width="64" height="64" rx="14" fill="#f8fafc" stroke="#cbd5e1"/>
    <path d="M32 7 52 20v24L32 57 12 44V20L32 7Z" fill="#0f172a"/>
    <path d="M32 14c-7 5-11 11-11 19s4 14 11 18c7-4 11-10 11-18S39 19 32 14Z" fill="#a8542c"/>
    <path d="M26 25c4 2 8 2 12 0M24 33c5 2.5 11 2.5 16 0M26 41c4 2 8 2 12 0" fill="none" stroke="#fff7ed" stroke-width="2.5" stroke-linecap="round"/>
    <path d="M32 14v37" stroke="#7dd3fc" stroke-width="2" stroke-linecap="round"/>
  </g>
  <text x="90" y="57" fill="#0f172a" font-family="'IBM Plex Sans', ui-sans-serif, system-ui, sans-serif" font-size="38" font-weight="700" letter-spacing="-1.5">Kokoa<tspan fill="#a8542c">DB</tspan></text>
</svg>
